<svg width="785" height="148" viewBox="0 0 785 148" fill="none" xmlns="http://www.w3.org/2000/svg">
<path fill-rule="evenodd" clip-rule="evenodd" d="M47.4073 0L0 143.496L3.00318 148H21.0222L32.3914 112.823H96.9597L108.114 148H126.348L129.137 143.496L81.9438 0H47.4073ZM90.7388 93.0899H38.6123L62.4232 19.7333H66.9279L90.7388 93.0899Z" fill="#0160F7"/>
<path d="M128.624 4.50435L131.627 0H150.504L189.974 128.267H194.479L233.949 0H252.827L255.615 4.50435L210.353 148H174.1L128.624 4.50435Z" fill="#0160F7"/>
<path d="M276.398 33.8899V114.11C276.398 136.703 287.624 148 310.076 148H369.711L380.651 139.42V128.267H310.291C302.139 128.267 298.063 124.263 298.063 116.255V31.7449C298.063 23.7372 302.139 19.7333 310.291 19.7333H380.651V8.57971L369.711 0H310.076C287.624 0 276.398 11.2966 276.398 33.8899Z" fill="#0160F7"/>
<path d="M410.309 0V148H431.975V0H410.309Z" fill="#0160F7"/>
<path d="M492.799 91.7897V56.4518C492.799 39.6868 501.165 31.3043 517.898 31.3043H549.558L557.104 36.8927V45.2751H518.39C511.937 45.2751 508.711 48.4528 508.711 54.8082V93.4333C508.711 99.8982 511.937 103.131 518.39 103.131H557.104V111.513L549.558 117.101H517.898C501.165 117.101 492.799 108.664 492.799 91.7897Z" fill="#0160F7"/>
<path d="M577.414 117.101V31.3043H674.692C691.424 31.3043 699.79 39.6868 699.79 56.4518V117.101H683.878V54.8082C683.878 48.4528 680.706 45.2751 674.364 45.2751H646.64V117.101H630.564V45.2751H593.326V117.101H577.414Z" fill="#0160F7"/>
<path d="M721.516 103.131V111.513L729.062 117.101H759.573C776.524 117.101 785 108.938 785 92.6115C785 79.1338 778.165 71.2444 764.495 68.9433L745.466 65.8204C739.998 64.8343 737.264 61.2731 737.264 55.1369C737.264 48.5624 740.544 45.2751 747.106 45.2751H781.063V36.8927L773.517 31.3043H746.778C729.936 31.3043 721.516 39.4129 721.516 55.63C721.516 68.5598 728.46 76.23 742.349 78.6407L761.214 81.7636C766.463 82.6402 769.088 86.4753 769.088 93.2689C769.088 99.8434 765.862 103.131 759.409 103.131H721.516Z" fill="#0160F7"/>
</svg>
